<?xml version="1.0" encoding="utf-8"?>
<!-- Generator: Adobe Illustrator 22.0.1, SVG Export Plug-In . SVG Version: 6.00 Build 0)  -->
<svg version="1.1" xmlns="http://www.w3.org/2000/svg" xmlns:xlink="http://www.w3.org/1999/xlink" x="0px" y="0px"
	 viewBox="0 0 108.7 35" style="enable-background:new 0 0 108.7 35;" xml:space="preserve">
<style type="text/css">
	.st0{display:none;}
	.st1{fill:#F7F7F7;}
	.st2{fill:#FFFFFF;}
	.st3{fill:#009BFB;stroke:#009BFB;stroke-linejoin:round;stroke-miterlimit:10;}
	.st4{fill:none;stroke:#009BFB;stroke-width:0.5;stroke-linejoin:round;stroke-miterlimit:10;}
	.st5{fill-rule:evenodd;clip-rule:evenodd;fill:#6D6E70;}
	.st6{fill:none;stroke:#ECECEC;stroke-width:0.75;stroke-miterlimit:10;}
	.st7{fill:#007AFB;}
	.st8{fill:#009BFB;}
	.st9{clip-path:url(#SVGID_2_);fill:#F4BC5E;}
	.st10{fill:url(#SVGID_5_);}
	.st11{fill:none;stroke:#009BFB;stroke-miterlimit:10;}
	.st12{fill:none;stroke:#6D6E70;stroke-linecap:round;stroke-miterlimit:10;}
	.st13{fill:#6D6E70;}
	.st14{fill:#FFFFFF;stroke:#FFFFFF;stroke-width:0.5;stroke-miterlimit:10;}
	.st15{fill-rule:evenodd;clip-rule:evenodd;fill:#FFFFFF;}
	.st16{fill:none;stroke:#C6C6C5;stroke-width:0.5;stroke-miterlimit:10;}
	.st17{fill:#F37E2C;}
	.st18{fill:#C26923;}
	.st19{fill:none;stroke:#009BFB;stroke-width:2;stroke-miterlimit:10;}
	.st20{fill:none;stroke:#F4BC5E;stroke-width:2;stroke-miterlimit:10;}
	.st21{fill:#ECECEC;}
	.st22{fill:none;stroke:#6D6E70;stroke-width:2;stroke-linecap:round;stroke-miterlimit:10;}
	.st23{clip-path:url(#SVGID_19_);fill:#F4BC5E;}
	.st24{fill:url(#SVGID_22_);}
	.st25{fill:none;stroke:#C6C6C5;stroke-width:0.5;stroke-linecap:round;stroke-linejoin:round;stroke-miterlimit:10;}
	.st26{fill:none;stroke:#009BFB;stroke-width:2;stroke-linecap:round;stroke-miterlimit:10;}
	.st27{fill:none;stroke:#009BFB;stroke-width:2;stroke-linecap:round;stroke-linejoin:round;stroke-miterlimit:10;}
	.st28{clip-path:url(#SVGID_40_);fill:#F4BC5E;}
</style>
<g id="_x31_200" class="st0">
</g>
<g id="Diseño">
	<g>
		<g>
			<g>
				<path class="st13" d="M13.5,25.9h1.3l1.3,5.6l1.3-5.6h1.1l1.4,5.6l1.3-5.6h1.2l-1.8,8h-1.2l-1.3-5.5l-1.3,5.5h-1.2L13.5,25.9z"
					/>
				<path class="st13" d="M23.7,25.9h4.5v1.1h-3.3v2.1H28v1.1h-3.1v2.4h3.3v1.1h-4.5V25.9z"/>
				<path class="st13" d="M29.8,25.9h2.6c1.6,0,2.4,0.6,2.4,2c0,1-0.4,1.5-1,1.7c0.7,0.2,1.1,0.8,1.1,2c0,1.6-0.9,2.2-2.5,2.2h-2.7
					V25.9z M32.4,29.3c0.8,0,1.2-0.3,1.2-1.1c0-0.8-0.4-1.1-1.2-1.1H31v2.2H32.4z M32.5,32.8c0.8,0,1.2-0.3,1.2-1.2
					c0-1-0.5-1.2-1.2-1.2H31v2.4H32.5z"/>
				<path class="st13" d="M36,33.3l0.6-0.9c0.4,0.2,1.1,0.5,2.1,0.5c1,0,1.4-0.4,1.4-1.1c0-0.8-0.4-1-1.7-1.5
					c-1.4-0.5-2.1-1-2.1-2.3c0-1.4,0.9-2.1,2.5-2.1c1,0,1.6,0.2,2.2,0.4l-0.5,1.1c-0.4-0.2-0.9-0.4-1.6-0.4c-0.9,0-1.3,0.4-1.3,0.9
					c0,0.7,0.3,0.9,1.4,1.3c1.7,0.7,2.4,1.1,2.4,2.5c0,1.3-0.8,2.2-2.6,2.2C37.5,33.9,36.6,33.7,36,33.3z"/>
				<path class="st13" d="M42.9,25.9h1.2v7.9h-1.2V25.9z"/>
				<path class="st13" d="M47.7,27.1h-2.2v-1.1h5.6v1.1h-2.2v6.8h-1.2V27.1z"/>
				<path class="st13" d="M52.5,25.9H57v1.1h-3.3v2.1h3.1v1.1h-3.1v2.4H57v1.1h-4.5V25.9z"/>
				<path class="st13" d="M61,25.9h2.6c1.6,0,2.4,0.6,2.4,2c0,1-0.4,1.5-1,1.7c0.7,0.2,1.1,0.8,1.1,2c0,1.6-0.9,2.2-2.5,2.2H61V25.9
					z M63.6,29.3c0.8,0,1.2-0.3,1.2-1.1c0-0.8-0.4-1.1-1.2-1.1h-1.4v2.2H63.6z M63.6,32.8c0.8,0,1.2-0.3,1.2-1.2
					c0-1-0.5-1.2-1.2-1.2h-1.5v2.4H63.6z"/>
				<path class="st13" d="M67.6,31.2v-5.2h1.2v5.1c0,1.2,0.3,1.8,1.6,1.8c1.2,0,1.6-0.6,1.6-1.8v-5.1h1.2v5.2c0,1.8-0.6,2.8-2.8,2.8
					C68.3,34,67.6,33,67.6,31.2z"/>
				<path class="st13" d="M75.1,25.9h1.2v7.9h-1.2V25.9z"/>
				<path class="st13" d="M78.2,25.9h1.2v6.8h3.2v1.1h-4.4V25.9z"/>
				<path class="st13" d="M83.9,25.9h2.3c2.5,0,3.2,1.2,3.2,3.9c0,2.8-0.7,4-3.3,4h-2.3V25.9z M86.3,32.8c1.5,0,1.9-0.8,1.9-2.9
					c0-2-0.4-2.8-1.9-2.8h-1.1v5.7H86.3z"/>
				<path class="st13" d="M90.9,25.9h4.5v1.1h-3.3v2.1h3.1v1.1h-3.1v2.4h3.3v1.1h-4.5V25.9z"/>
				<path class="st13" d="M99.6,30.9h-1.3v2.9h-1.2v-7.9h2.8c1.7,0,2.4,0.8,2.4,2.4c0,1.2-0.4,2.1-1.5,2.4l1.4,3h-1.3L99.6,30.9z
					 M99.8,29.8c0.9,0,1.2-0.4,1.2-1.4c0-1-0.4-1.4-1.2-1.4h-1.5v2.8H99.8z"/>
				<path class="st13" d="M103.3,33.3l0.6-0.9c0.4,0.2,1.1,0.5,2.1,0.5c1,0,1.4-0.4,1.4-1.1c0-0.8-0.4-1-1.7-1.5
					c-1.4-0.5-2.1-1-2.1-2.3c0-1.4,0.9-2.1,2.5-2.1c1,0,1.6,0.2,2.2,0.4l-0.5,1.1c-0.4-0.2-0.9-0.4-1.6-0.4c-0.9,0-1.3,0.4-1.3,0.9
					c0,0.7,0.3,0.9,1.4,1.3c1.7,0.7,2.4,1.1,2.4,2.5c0,1.3-0.8,2.2-2.6,2.2C104.8,33.9,103.9,33.7,103.3,33.3z"/>
			</g>
		</g>
		<g id="XMLID_41_">
			<path id="XMLID_42_" class="st5" d="M5.1,32.1c1.2,0,2.1-1,2.1-2.1c0-1.2-1-2.1-2.1-2.1c-1.2,0-2.1,0.9-2.1,2.1
				C2.9,31.1,3.9,32.1,5.1,32.1L5.1,32.1z M0.2,29.1l1.2-0.2c0.1-0.2,0.2-0.5,0.3-0.7l-0.7-1c-0.1-0.1,0-0.2,0-0.3l0.9-0.9
				c0.1-0.1,0.2-0.1,0.3,0l1,0.7c0.2-0.1,0.5-0.2,0.8-0.3l0.2-1.2c0-0.1,0.2-0.2,0.3-0.2h1.2c0.1,0,0.2,0.1,0.2,0.2l0.2,1.2
				c0.3,0,0.5,0.2,0.7,0.3l1-0.7c0.1-0.1,0.2-0.1,0.3,0l0.9,0.9c0,0.1,0.1,0.2,0,0.3l-0.7,1c0.1,0.2,0.2,0.4,0.3,0.7l1.2,0.2
				c0.1,0,0.2,0.2,0.2,0.2v1.2c0,0.1-0.1,0.2-0.2,0.3L8.7,31c-0.1,0.2-0.2,0.5-0.3,0.7l0.7,1c0,0.1,0,0.3,0,0.4l-0.9,0.8
				C8.1,34,8,34,7.8,34l-1-0.7c-0.2,0.1-0.4,0.2-0.7,0.3l-0.2,1.2c0,0.1-0.2,0.2-0.2,0.2H4.5c-0.1,0-0.2-0.1-0.3-0.2L4,33.6
				c-0.3-0.1-0.5-0.2-0.7-0.3l-1,0.7c-0.1,0-0.2,0-0.3,0L1,33.1C1,33,1,32.9,1,32.8l0.7-1c-0.1-0.2-0.2-0.5-0.3-0.7l-1.2-0.2
				c-0.1,0-0.2-0.2-0.2-0.3v-1.2C0,29.2,0.1,29.1,0.2,29.1L0.2,29.1z M4.2,30c0-0.5,0.4-0.9,0.9-0.9c0.5,0,0.9,0.4,0.9,0.9
				c0,0.5-0.4,0.9-0.9,0.9C4.5,30.8,4.2,30.4,4.2,30L4.2,30z"/>
		</g>
		<path d="M0.3,0.2h10.2v3H7.1v18H3.8v-18H0.3V0.2z"/>
		<path d="M15.3,21.3H12v-21h3.3v9h3.8v-9h3.4v21h-3.4v-9h-3.8V21.3z"/>
		<path d="M28.2,9.1h4.5v3h-4.5v6.2h5.7v3h-9v-21h9v3h-5.7V9.1z"/>
		<path d="M50.5,5.1v0.8c0,2.2-0.7,3.5-2.1,4.2c1.8,0.7,2.5,2.3,2.5,4.5v1.7c0,3.2-1.7,5-5,5h-5.2v-21h5C49,0.2,50.5,1.8,50.5,5.1z
			 M43.9,3.2v5.6h1.3c1.2,0,2-0.5,2-2.2V5.4c0-1.5-0.5-2.2-1.7-2.2H43.9z M43.9,11.8v6.5h1.9c1.1,0,1.7-0.5,1.7-2.1v-1.8
			c0-2-0.6-2.6-2.1-2.6H43.9z"/>
		<path d="M56.2,9.1h4.5v3h-4.5v6.2h5.7v3h-9v-21h9v3h-5.7V9.1z"/>
		<path d="M68.4,0c3.2,0,4.9,1.9,4.9,5.3v0.8h-3.1v-1c0-1.5-0.6-2.1-1.7-2.1c-1.1,0-1.7,0.6-1.7,2.1c0,4.3,6.5,5.1,6.5,11.1
			c0,3.4-1.7,5.3-4.9,5.3c-3.2,0-4.9-1.9-4.9-5.3v-1.4h3.1v1.7c0,1.5,0.7,2,1.7,2c1.1,0,1.7-0.5,1.7-2c0-4.3-6.5-5.1-6.5-11.1
			C63.5,1.9,65.2,0,68.4,0z"/>
		<path d="M74.9,0.2h10.2v3h-3.5v18h-3.3v-18h-3.5V0.2z"/>
		<path class="st8" d="M90.3,2.9c2.6,0,3.1-1.2,3.6-2.6h2.2v21h-3.3v-16h-2.6V2.9z"/>
		<path class="st8" d="M98.7,5.3c0-3.4,1.8-5.3,5-5.3c3.2,0,5,1.9,5,5.3v10.9c0,3.4-1.8,5.3-5,5.3c-3.2,0-5-1.9-5-5.3V5.3z
			 M102,16.4c0,1.5,0.7,2.1,1.7,2.1c1.1,0,1.7-0.6,1.7-2.1V5.1c0-1.5-0.7-2.1-1.7-2.1c-1.1,0-1.7,0.6-1.7,2.1V16.4z"/>
	</g>
</g>
</svg>
